<svg width="25" height="25" viewBox="0 0 25 25" fill="none" xmlns="http://www.w3.org/2000/svg">
<path d="M23.7803 17.5242C22.7859 16.5026 19.9595 14.5888 18.107 14.5888C17.678 14.5888 17.3034 14.6842 16.9969 14.8817C16.0911 15.4606 15.3692 15.9101 15.0218 15.9101C14.8311 15.9101 14.6268 15.7398 14.1773 15.3516L14.1024 15.2835C12.856 14.2006 12.5904 13.9214 12.1069 13.4174L11.9843 13.288C11.8957 13.1995 11.8208 13.1177 11.7459 13.0428C11.3237 12.607 11.0172 12.2937 9.93428 11.0677L9.88661 11.0133C9.369 10.4275 9.02847 10.0462 9.00804 9.76692C8.98761 9.49449 9.22598 9.0518 9.83212 8.22772C10.5677 7.23337 10.5949 6.00745 9.92066 4.58403C9.38262 3.46028 8.50405 2.3842 7.72764 1.43752L7.65953 1.3558C6.99209 0.53852 6.21568 0.129883 5.35073 0.129883C4.39043 0.129883 3.59359 0.64749 3.17133 0.919915C3.13728 0.940347 3.10322 0.96759 3.06917 0.988022C2.12249 1.58736 1.43462 2.41144 1.17582 3.24915C0.787611 4.50912 0.528808 6.14367 2.38811 9.54217C3.99542 12.4844 5.45289 14.4594 7.7685 16.8363C9.9479 19.0702 10.915 19.7922 13.0808 21.3586C15.4918 23.1021 17.8074 24.1033 19.4283 24.1033C20.9334 24.1033 22.1185 24.1033 23.8075 22.0669C25.5783 19.9284 24.8427 18.6207 23.7803 17.5242Z" fill="white"/>
</svg>
