<svg width="31" height="30" viewBox="0 0 31 30" fill="none" xmlns="http://www.w3.org/2000/svg">
<path d="M28.329 7.97841H23.2126C23.9492 7.04821 24.3048 5.87286 24.2074 4.69034C24.11 3.50782 23.5668 2.4065 22.688 1.60937C21.8091 0.812246 20.6601 0.378884 19.4737 0.397032C18.2873 0.415181 17.1522 0.883484 16.2981 1.70712C15.9536 2.05588 15.6717 2.46137 15.4648 2.90583C15.258 2.46137 14.9761 2.05588 14.6316 1.70712C13.7775 0.883484 12.6423 0.415181 11.456 0.397032C10.2696 0.378884 9.12062 0.812246 8.24173 1.60937C7.36285 2.4065 6.81972 3.50782 6.72231 4.69034C6.6249 5.87286 6.9805 7.04821 7.7171 7.97841H2.60066C1.98033 7.97841 1.38542 8.22483 0.946779 8.66347C0.508142 9.10211 0.261719 9.69703 0.261719 10.3174V14.9952C0.261719 15.6156 0.508142 16.2105 0.946779 16.6491C1.38542 17.0878 1.98033 17.3342 2.60066 17.3342V26.6899C2.60066 27.3103 2.84708 27.9052 3.28572 28.3438C3.72436 28.7825 4.31928 29.0289 4.9396 29.0289H25.9901C26.6104 29.0289 27.2053 28.7825 27.644 28.3438C28.0826 27.9052 28.329 27.3103 28.329 26.6899V17.3342C28.9494 17.3342 29.5443 17.0878 29.9829 16.6491C30.4215 16.2105 30.668 15.6156 30.668 14.9952V10.3174C30.668 9.69703 30.4215 9.10211 29.9829 8.66347C29.5443 8.22483 28.9494 7.97841 28.329 7.97841ZM17.95 3.359C18.1627 3.1242 18.421 2.93507 18.709 2.8031C18.9971 2.67112 19.3089 2.59905 19.6257 2.59125C19.9424 2.58345 20.2575 2.64009 20.5517 2.75773C20.8458 2.87537 21.1131 3.05156 21.3371 3.2756C21.5612 3.49965 21.7374 3.76688 21.855 4.06107C21.9726 4.35527 22.0293 4.6703 22.0215 4.98705C22.0137 5.3038 21.9416 5.61567 21.8096 5.90372C21.6777 6.19177 21.4885 6.45001 21.2537 6.66275C20.5374 7.39367 18.447 7.78837 16.6782 7.93455C16.8244 6.16573 17.219 4.0753 17.95 3.359ZM9.67596 3.359C10.1163 2.92512 10.7097 2.68191 11.3278 2.68191C11.946 2.68191 12.5394 2.92512 12.9797 3.359C13.7106 4.0753 14.1053 6.16573 14.2515 7.93455C12.4827 7.78837 10.3923 7.39367 9.67596 6.66275C9.24208 6.22242 8.99887 5.62906 8.99887 5.01088C8.99887 4.3927 9.24208 3.79933 9.67596 3.359ZM28.329 14.9952H16.6343V25.5205C16.6343 25.8306 16.5111 26.1281 16.2918 26.3474C16.0725 26.5667 15.775 26.6899 15.4648 26.6899C15.1547 26.6899 14.8572 26.5667 14.6379 26.3474C14.4186 26.1281 14.2954 25.8306 14.2954 25.5205V14.9952H2.60066V10.3174H14.2954V14.9952H16.6343V10.3174H28.329V14.9952Z" fill="white"/>
</svg>
