<svg width="39" height="39" viewBox="0 0 39 39" fill="none" xmlns="http://www.w3.org/2000/svg">
<g clip-path="url(#clip0_117_756)">
<path d="M19.9505 6.54264C16.5911 6.54264 13.3693 7.87716 10.9938 10.2526C8.61837 12.6281 7.28385 15.8499 7.28385 19.2093H12.0339C12.8737 19.2093 13.6792 19.5429 14.273 20.1368C14.8669 20.7307 15.2005 21.5361 15.2005 22.376V30.2926C15.2005 31.1325 14.8669 31.938 14.273 32.5318C13.6792 33.1257 12.8737 33.4593 12.0339 33.4593H7.28385C6.444 33.4593 5.63855 33.1257 5.04468 32.5318C4.45082 31.938 4.11719 31.1325 4.11719 30.2926V19.2093C4.11719 10.4646 11.2058 3.37598 19.9505 3.37598C28.6953 3.37598 35.7839 10.4646 35.7839 19.2093V30.2926C35.7839 31.1325 35.4502 31.938 34.8564 32.5318C34.2625 33.1257 33.457 33.4593 32.6172 33.4593H27.8672C27.0273 33.4593 26.2219 33.1257 25.628 32.5318C25.0342 31.938 24.7005 31.1325 24.7005 30.2926V22.376C24.7005 21.5361 25.0342 20.7307 25.628 20.1368C26.2219 19.5429 27.0273 19.2093 27.8672 19.2093H32.6172C32.6172 15.8499 31.2827 12.6281 28.9072 10.2526C26.5317 7.87716 23.3099 6.54264 19.9505 6.54264ZM7.28385 22.376V30.2926H12.0339V22.376H7.28385ZM27.8672 22.376V30.2926H32.6172V22.376H27.8672Z" fill="#918F8F"/>
</g>
<defs>
<clipPath id="clip0_117_756">
<rect width="38" height="38" fill="white" transform="translate(0.953125 0.208984)"/>
</clipPath>
</defs>
</svg>
