<svg width="32" height="32" viewBox="0 0 32 32" fill="none" xmlns="http://www.w3.org/2000/svg">
<path d="M21.0874 16.1333C21.0874 17.1229 20.794 18.0902 20.2443 18.9129C19.6945 19.7357 18.9131 20.377 17.9989 20.7557C17.0847 21.1344 16.0787 21.2334 15.1082 21.0404C14.1376 20.8473 13.2462 20.3708 12.5464 19.6711C11.8467 18.9714 11.3702 18.0799 11.1772 17.1094C10.9841 16.1389 11.0832 15.1329 11.4619 14.2187C11.8406 13.3045 12.4818 12.5231 13.3046 11.9733C14.1274 11.4235 15.0947 11.1301 16.0842 11.1301C17.4099 11.1342 18.6801 11.6627 19.6175 12.6001C20.5549 13.5375 21.0833 14.8076 21.0874 16.1333ZM31.7193 9.2539V23.0127C31.7193 25.3349 30.7968 27.5619 29.1548 29.2039C27.5128 30.8459 25.2858 31.7683 22.9637 31.7683H9.20483C6.8827 31.7683 4.65567 30.8459 3.01368 29.2039C1.37168 27.5619 0.449219 25.3349 0.449219 23.0127V9.2539C0.449219 6.93177 1.37168 4.70475 3.01368 3.06275C4.65567 1.42075 6.8827 0.498291 9.20483 0.498291H22.9637C25.2858 0.498291 27.5128 1.42075 29.1548 3.06275C30.7968 4.70475 31.7193 6.93177 31.7193 9.2539ZM23.5891 16.1333C23.5891 14.649 23.1489 13.198 22.3243 11.9639C21.4996 10.7297 20.3275 9.76779 18.9562 9.19977C17.5849 8.63175 16.0759 8.48313 14.6201 8.77271C13.1643 9.06228 11.8271 9.77704 10.7775 10.8266C9.72797 11.8762 9.01321 13.2134 8.72363 14.6692C8.43406 16.125 8.58268 17.634 9.1507 19.0053C9.71872 20.3766 10.6806 21.5487 11.9148 22.3733C13.149 23.198 14.5999 23.6381 16.0842 23.6381C18.0746 23.6381 19.9835 22.8474 21.3909 21.44C22.7984 20.0326 23.5891 18.1237 23.5891 16.1333ZM26.0907 8.0031C26.0907 7.63202 25.9806 7.26928 25.7745 6.96074C25.5683 6.6522 25.2753 6.41172 24.9324 6.26972C24.5896 6.12771 24.2124 6.09056 23.8484 6.16295C23.4845 6.23534 23.1502 6.41403 22.8878 6.67643C22.6254 6.93882 22.4467 7.27312 22.3743 7.63707C22.3019 8.00102 22.3391 8.37826 22.4811 8.72109C22.6231 9.06392 22.8636 9.35695 23.1721 9.56311C23.4806 9.76927 23.8434 9.8793 24.2145 9.8793C24.7121 9.8793 25.1893 9.68163 25.5411 9.32978C25.893 8.97792 26.0907 8.5007 26.0907 8.0031Z" fill="white"/>
</svg>
