<svg width="24" height="30" viewBox="0 0 24 30" fill="none" xmlns="http://www.w3.org/2000/svg">
<path d="M11.6621 14.5703C12.4609 14.5703 13.145 14.2856 13.7143 13.7163C14.2827 13.1479 14.5669 12.4643 14.5669 11.6655C14.5669 10.8667 14.2827 10.1826 13.7143 9.6133C13.145 9.04493 12.4609 8.76074 11.6621 8.76074C10.8633 8.76074 10.1797 9.04493 9.61133 9.6133C9.04199 10.1826 8.75732 10.8667 8.75732 11.6655C8.75732 12.4643 9.04199 13.1479 9.61133 13.7163C10.1797 14.2856 10.8633 14.5703 11.6621 14.5703ZM11.6621 29.0942C7.76486 25.7779 4.85426 22.6974 2.93033 19.8527C1.00542 17.0089 0.0429688 14.3767 0.0429688 11.956C0.0429688 8.32502 1.21118 5.43234 3.54759 3.27796C5.88304 1.12358 8.58788 0.0463867 11.6621 0.0463867C14.7363 0.0463867 17.4412 1.12358 19.7766 3.27796C22.113 5.43234 23.2812 8.32502 23.2812 11.956C23.2812 14.3767 22.3193 17.0089 20.3953 19.8527C18.4704 22.6974 15.5594 25.7779 11.6621 29.0942Z" fill="white"/>
</svg>
