<svg width="27" height="20" viewBox="0 0 27 20" fill="none" xmlns="http://www.w3.org/2000/svg">
<path d="M13.3867 14.5544C12.5617 14.5544 11.7366 14.2927 11.0329 13.7623L0.609375 5.92384V16.8713C0.609375 18.1504 1.68197 19.1882 3.00513 19.1882H23.7683C25.0915 19.1882 26.1641 18.1509 26.1641 16.8713V5.92384L15.7425 13.7676C15.0388 14.2937 14.2103 14.5544 13.3867 14.5544ZM1.42243 4.57712L12.0137 12.5464C12.8217 13.1546 13.9537 13.1546 14.7618 12.5464L25.353 4.57712C25.8197 4.19097 26.1641 3.59726 26.1641 2.96976C26.1641 1.69014 25.091 0.652832 23.7683 0.652832H3.00513C1.68197 0.652832 0.609375 1.69014 0.609375 2.96976C0.609375 3.59726 0.909343 4.19097 1.42243 4.57712Z" fill="white"/>
</svg>
