<svg width="32" height="33" viewBox="0 0 32 33" fill="none" xmlns="http://www.w3.org/2000/svg">
<g clip-path="url(#clip0_117_749)">
<path d="M25.1364 0.345703H6.62923C4.87687 0.347802 3.19689 1.04485 1.95779 2.28396C0.718682 3.52306 0.0216303 5.20305 0.0195313 6.9554L0.0195312 25.4626C0.0216303 27.2149 0.718682 28.8949 1.95779 30.134C3.19689 31.3731 4.87687 32.0702 6.62923 32.0723H25.1364C26.8888 32.0702 28.5687 31.3731 29.8078 30.134C31.0469 28.8949 31.744 27.2149 31.7461 25.4626V6.9554C31.744 5.20305 31.0469 3.52306 29.8078 2.28396C28.5687 1.04485 26.8888 0.347802 25.1364 0.345703V0.345703ZM29.1022 25.4626C29.1022 26.5144 28.6844 27.5231 27.9407 28.2668C27.1969 29.0106 26.1882 29.4284 25.1364 29.4284H6.62923C5.57743 29.4284 4.56871 29.0106 3.82497 28.2668C3.08124 27.5231 2.66341 26.5144 2.66341 25.4626V6.9554C2.66341 5.9036 3.08124 4.89488 3.82497 4.15115C4.56871 3.40741 5.57743 2.98958 6.62923 2.98958H25.1364C26.1882 2.98958 27.1969 3.40741 27.9407 4.15115C28.6844 4.89488 29.1022 5.9036 29.1022 6.9554V25.4626Z" fill="white"/>
<path d="M12.1417 21.0059C12.6138 21.2999 13.1537 21.4674 13.7093 21.4924C14.265 21.5174 14.8177 21.399 15.3144 21.1486L19.3727 19.1155C19.9139 18.845 20.369 18.4291 20.6871 17.9145C21.0051 17.3999 21.1736 16.8069 21.1736 16.2019C21.1736 15.5969 21.0051 15.0039 20.6871 14.4893C20.369 13.9747 19.9139 13.5589 19.3727 13.2884L15.3117 11.2658C14.8152 11.0175 14.2635 10.9003 13.7089 10.9252C13.1543 10.95 12.6153 11.1163 12.143 11.408C11.6707 11.6998 11.2808 12.1074 11.0104 12.5922C10.7399 13.077 10.5979 13.6229 10.5977 14.178V18.2364C10.5958 18.7917 10.7368 19.3382 11.0073 19.8232C11.2777 20.3082 11.6683 20.7155 12.1417 21.0059ZM13.2416 14.178C13.2402 14.0733 13.2663 13.9701 13.3173 13.8787C13.3684 13.7873 13.4425 13.7109 13.5324 13.6572C13.6294 13.5971 13.7409 13.5647 13.8549 13.5633C13.9506 13.5642 14.0447 13.5872 14.1299 13.6307L18.1896 15.6586C18.2915 15.7096 18.3771 15.7879 18.437 15.8848C18.4969 15.9816 18.5286 16.0933 18.5286 16.2072C18.5286 16.3211 18.4969 16.4328 18.437 16.5297C18.3771 16.6266 18.2915 16.7049 18.1896 16.7558L14.1286 18.7837C14.0352 18.8314 13.9311 18.854 13.8263 18.8494C13.7216 18.8448 13.6198 18.813 13.5311 18.7572C13.4412 18.7035 13.367 18.6271 13.316 18.5357C13.265 18.4443 13.2388 18.3411 13.2402 18.2364L13.2416 14.178Z" fill="white"/>
</g>
<defs>
<clipPath id="clip0_117_749">
<rect width="31.7266" height="31.7266" fill="white" transform="translate(0.0195312 0.345703)"/>
</clipPath>
</defs>
</svg>
