<svg width="71" height="71" viewBox="0 0 71 71" fill="none" xmlns="http://www.w3.org/2000/svg">
<path d="M31.2483 23.4809C29.0224 24.0374 27.4609 26.0373 27.4609 28.3316V35.5697C27.4609 37.0102 25.9014 37.9897 24.4609 37.9897C20.5949 37.9897 17.4609 41.1237 17.4609 44.9897C17.4609 48.8557 20.5949 51.9897 24.4609 51.9897C28.3269 51.9897 31.4609 48.8557 31.4609 44.9897V39.4556C31.4609 37.1613 33.0224 35.1614 35.2483 34.6049L44.3716 32.3241C45.9408 31.9318 47.4609 33.1186 47.4609 34.7362V35.5704C47.4609 37.0104 45.9009 37.9897 44.4609 37.9897C40.5949 37.9897 37.4609 41.1237 37.4609 44.9897C37.4609 48.8557 40.5949 51.9897 44.4609 51.9897C48.3269 51.9897 51.4609 48.8557 51.4609 44.9897V24.8316C51.4609 21.5788 48.404 19.192 45.2483 19.9809L31.2483 23.4809ZM24.4609 47.9897C22.8069 47.9897 21.4609 46.6437 21.4609 44.9897C21.4609 43.3357 22.8069 41.9897 24.4609 41.9897C26.1149 41.9897 27.4609 43.3357 27.4609 44.9897C27.4609 46.6437 26.1149 47.9897 24.4609 47.9897ZM44.4609 47.9897C42.8069 47.9897 41.4609 46.6437 41.4609 44.9897C41.4609 43.3357 42.8069 41.9897 44.4609 41.9897C46.1149 41.9897 47.4609 43.3357 47.4609 44.9897C47.4609 46.6437 46.1149 47.9897 44.4609 47.9897ZM47.4609 25.9598C47.4609 26.8225 46.8738 27.5745 46.0368 27.7838L33.7971 30.8437C32.6104 31.1404 31.4609 30.2429 31.4609 29.0197C31.4609 28.157 32.0481 27.4049 32.8851 27.1957L45.1248 24.1358C46.3114 23.8391 47.4609 24.7366 47.4609 25.9598Z" fill="#918F8F"/>
</svg>
