<svg width="45" height="32" viewBox="0 0 45 32" fill="none" xmlns="http://www.w3.org/2000/svg">
<path opacity="0.9" d="M43.8999 5.1702C43.649 4.23774 43.1575 3.38757 42.4747 2.70475C41.7918 2.02194 40.9417 1.53045 40.0092 1.27946C36.5753 0.350098 22.7766 0.350098 22.7766 0.350098C22.7766 0.350098 8.97787 0.350098 5.54394 1.27946C4.61149 1.53045 3.76131 2.02194 3.0785 2.70475C2.39569 3.38757 1.90419 4.23774 1.65321 5.1702C1.01202 8.67227 0.700864 12.2268 0.723841 15.787C0.700864 19.3472 1.01202 22.9018 1.65321 26.4038C1.90419 27.3363 2.39569 28.1865 3.0785 28.8693C3.76131 29.5521 4.61149 30.0436 5.54394 30.2946C8.97787 31.2239 22.7766 31.2239 22.7766 31.2239C22.7766 31.2239 36.5753 31.2239 40.0092 30.2946C40.9417 30.0436 41.7918 29.5521 42.4747 28.8693C43.1575 28.1865 43.649 27.3363 43.8999 26.4038C44.5411 22.9018 44.8523 19.3472 44.8293 15.787C44.8523 12.2268 44.5411 8.67227 43.8999 5.1702ZM18.366 22.4028V9.17119L29.8177 15.787L18.366 22.4028Z" fill="white"/>
</svg>
